<svg xmlns="http://www.w3.org/2000/svg" viewBox="0 0 2400 160" preserveAspectRatio="none" style="display:block; width:100%; height:100%;">
  <defs>
    <filter id="shadow" x="-5%" y="-50%" width="110%" height="200%">
      <feDropShadow dx="0" dy="-4" stdDeviation="5" flood-color="#000000" flood-opacity="0.75"/>
    </filter>
    <filter id="curl-shadow" x="-5%" y="-50%" width="110%" height="200%">
      <feDropShadow dx="0" dy="-1" stdDeviation="2" flood-color="#000000" flood-opacity="0.3"/>
    </filter>
  </defs>
  <polygon points="0,160 0.0,68.0 10.4,73.0 15.4,72.6 29.4,67.8 37.1,74.9 47.4,72.4 58.7,73.3 71.3,75.0 80.2,74.2 91.5,67.9 102.9,66.9 117.8,66.6 126.3,65.2 132.2,63.8 139.8,61.4 153.7,64.8 167.4,61.1 180.2,62.2 189.1,60.1 203.9,62.4 214.0,60.3 221.7,60.1 228.7,62.8 236.9,64.4 246.7,64.3 255.7,61.5 266.8,60.7 278.5,62.3 285.3,67.6 294.0,66.1 299.5,66.0 307.1,63.7 314.9,61.4 320.3,65.6 329.9,61.2 338.1,64.1 347.4,60.5 361.7,62.9 371.1,65.3 380.2,61.6 390.1,56.0 404.4,58.3 418.1,63.1 425.3,64.7 434.6,64.5 446.9,58.9 457.1,52.9 468.1,57.6 477.8,57.2 492.2,51.8 506.7,51.0 511.8,55.3 526.1,49.5 539.7,50.4 553.2,51.3 565.7,50.9 578.2,49.3 586.0,46.8 600.0,45.7 607.7,48.7 617.9,49.2 629.3,47.9 635.3,45.3 648.5,45.8 655.3,45.2 668.2,42.5 679.2,39.7 688.4,40.9 698.9,35.5 709.3,41.0 717.4,44.5 730.8,46.0 745.5,43.5 757.6,49.6 767.9,49.9 774.3,53.7 787.6,56.6 798.0,62.9 808.8,65.9 814.5,64.5 824.8,65.2 834.0,71.7 846.3,70.5 859.3,76.3 873.9,82.0 885.6,84.0 897.0,89.6 911.7,87.4 924.0,93.5 937.2,92.8 951.7,100.1 966.5,100.7 975.0,97.5 981.0,92.9 992.5,99.7 1006.8,97.5 1017.9,97.2 1029.9,92.6 1043.3,96.2 1050.3,91.7 1064.4,91.1 1073.2,92.2 1082.7,93.6 1091.8,93.6 1098.2,92.5 1104.8,92.6 1118.5,95.3 1130.1,88.3 1136.1,95.7 1142.8,93.7 1152.1,91.9 1162.1,94.1 1176.1,92.9 1187.8,93.1 1193.6,96.9 1198.7,101.9 1208.7,101.3 1218.1,99.3 1231.6,98.3 1236.7,102.4 1248.5,100.8 1257.8,98.2 1269.8,101.6 1280.8,103.8 1295.6,101.8 1302.2,101.7 1311.4,101.6 1326.4,101.5 1336.8,100.8 1350.9,100.6 1356.1,98.8 1364.3,94.6 1376.1,99.6 1385.0,93.9 1394.4,97.4 1403.3,99.4 1416.9,100.4 1431.1,99.2 1437.7,95.6 1447.7,91.4 1455.1,90.6 1469.8,91.6 1483.5,87.4 1491.6,90.4 1500.2,87.0 1515.0,88.3 1520.9,85.2 1526.6,77.5 1537.4,78.6 1551.1,75.5 1558.4,79.5 1570.2,70.3 1575.8,71.4 1583.3,70.2 1596.1,67.9 1608.3,68.2 1622.8,68.5 1628.4,70.3 1640.1,74.3 1651.3,69.6 1662.6,74.7 1670.8,72.1 1681.1,74.7 1693.4,79.1 1703.0,80.2 1716.4,79.1 1731.2,76.6 1744.6,78.6 1754.7,77.7 1769.3,49.4 1777.4,45.2 1782.4,47.5 1794.1,45.8 1800.8,52.9 1808.3,49.7 1820.2,50.5 1831.5,53.0 1839.5,49.0 1851.7,55.1 1857.4,51.6 1862.8,54.1 1870.0,61.3 1875.4,57.0 1883.0,65.3 1892.4,60.4 1900.8,66.8 1907.6,62.9 1921.0,70.8 1929.7,67.7 1935.0,70.8 1942.6,68.2 1952.2,74.3 1959.1,77.4 1968.3,78.0 1979.6,74.5 1985.1,80.1 1997.1,78.6 2010.9,82.4 2022.9,85.5 2029.3,84.3 2043.9,84.2 2051.0,90.1 2063.0,89.8 2074.9,89.6 2088.1,93.0 2101.7,88.4 2112.2,94.2 2121.7,89.2 2134.3,88.1 2144.2,93.3 2152.7,90.6 2165.8,84.5 2180.1,83.3 2190.3,80.8 2198.7,79.7 2207.1,84.8 2216.6,80.8 2228.0,76.4 2241.8,76.5 2252.2,73.1 2263.9,70.2 2272.7,73.0 2287.0,66.9 2295.4,68.9 2308.4,68.1 2315.3,63.5 2329.4,64.9 2338.2,69.1 2345.2,71.1 2350.4,73.5 2357.4,71.0 2363.3,75.7 2374.7,72.8 2386.6,69.0 2397.1,71.1 2400,160" fill="#faf8f5" filter="url(#shadow)"/>
  <polygon points="0,160 0.0,76.9 10.4,77.0 15.4,76.0 29.4,72.9 37.1,77.6 47.4,75.7 58.7,78.2 71.3,77.9 80.2,77.5 91.5,70.4 102.9,72.0 117.8,69.8 126.3,67.6 132.2,65.9 139.8,63.5 153.7,68.5 167.4,63.6 180.2,65.2 189.1,63.9 203.9,64.9 214.0,67.0 221.7,69.0 228.7,69.0 236.9,67.4 246.7,68.7 255.7,65.0 266.8,67.1 278.5,65.4 285.3,70.2 294.0,68.2 299.5,68.9 307.1,66.1 314.9,66.5 320.3,67.9 329.9,63.3 338.1,66.9 347.4,63.5 361.7,67.0 371.1,67.3 380.2,65.9 390.1,64.8 404.4,62.3 418.1,66.0 425.3,67.3 434.6,66.8 446.9,65.2 457.1,56.6 468.1,60.9 477.8,59.8 492.2,57.2 506.7,57.9 511.8,57.7 526.1,52.6 539.7,53.5 553.2,53.3 565.7,53.2 578.2,51.9 586.0,50.2 600.0,50.8 607.7,51.9 617.9,51.8 629.3,50.5 635.3,48.2 648.5,48.0 655.3,47.7 668.2,45.5 679.2,41.8 688.4,43.4 698.9,41.2 709.3,43.2 717.4,46.7 730.8,48.5 745.5,51.0 757.6,54.3 767.9,54.8 774.3,57.6 787.6,62.3 798.0,65.8 808.8,68.2 814.5,69.7 824.8,70.0 834.0,76.6 846.3,78.9 859.3,81.7 873.9,84.8 885.6,88.5 897.0,91.7 911.7,91.7 924.0,96.1 937.2,99.3 951.7,102.3 966.5,103.2 975.0,99.7 981.0,98.9 992.5,102.1 1006.8,102.2 1017.9,100.3 1029.9,97.3 1043.3,98.8 1050.3,97.8 1064.4,94.1 1073.2,95.3 1082.7,96.0 1091.8,96.9 1098.2,98.2 1104.8,99.1 1118.5,98.1 1130.1,94.5 1136.1,98.1 1142.8,99.1 1152.1,95.1 1162.1,99.4 1176.1,97.0 1187.8,95.2 1193.6,99.0 1198.7,104.2 1208.7,104.0 1218.1,103.8 1231.6,104.5 1236.7,105.5 1248.5,104.0 1257.8,104.9 1269.8,107.7 1280.8,109.3 1295.6,105.7 1302.2,106.1 1311.4,104.1 1326.4,104.0 1336.8,103.2 1350.9,103.4 1356.1,100.9 1364.3,103.0 1376.1,102.6 1385.0,102.7 1394.4,101.0 1403.3,101.7 1416.9,103.5 1431.1,102.4 1437.7,100.8 1447.7,99.5 1455.1,99.5 1469.8,97.6 1483.5,92.8 1491.6,94.7 1500.2,90.2 1515.0,90.4 1520.9,89.1 1526.6,81.5 1537.4,84.0 1551.1,83.1 1558.4,82.1 1570.2,79.5 1575.8,75.9 1583.3,75.6 1596.1,71.2 1608.3,75.2 1622.8,71.3 1628.4,75.2 1640.1,76.4 1651.3,72.4 1662.6,77.3 1670.8,77.9 1681.1,78.0 1693.4,81.5 1703.0,82.4 1716.4,82.8 1731.2,82.4 1744.6,81.2 1754.7,81.8 1769.3,52.1 1777.4,51.5 1782.4,50.0 1794.1,51.7 1800.8,54.9 1808.3,54.4 1820.2,56.3 1831.5,56.2 1839.5,54.6 1851.7,59.6 1857.4,56.2 1862.8,60.1 1870.0,64.0 1875.4,64.9 1883.0,67.3 1892.4,65.5 1900.8,69.1 1907.6,66.7 1921.0,73.4 1929.7,70.2 1935.0,75.4 1942.6,72.5 1952.2,78.0 1959.1,79.4 1968.3,81.3 1979.6,76.7 1985.1,84.2 1997.1,81.2 2010.9,85.2 2022.9,88.0 2029.3,88.3 2043.9,87.9 2051.0,92.4 2063.0,93.0 2074.9,92.8 2088.1,95.1 2101.7,97.8 2112.2,97.9 2121.7,96.9 2134.3,90.8 2144.2,95.3 2152.7,92.7 2165.8,87.6 2180.1,86.8 2190.3,85.8 2198.7,83.8 2207.1,86.8 2216.6,83.1 2228.0,81.3 2241.8,78.9 2252.2,75.5 2263.9,77.2 2272.7,75.9 2287.0,72.6 2295.4,72.8 2308.4,71.0 2315.3,67.1 2329.4,67.0 2338.2,71.2 2345.2,75.2 2350.4,79.7 2357.4,75.2 2363.3,77.8 2374.7,75.0 2386.6,72.6 2397.1,75.0 2400,160" fill="#f5f2eb" filter="url(#curl-shadow)"/>
  <polygon points="0,160 0.0,79.2 10.4,79.7 15.4,79.1 29.4,79.0 37.1,80.6 47.4,80.5 58.7,80.3 71.3,80.3 80.2,79.7 91.5,77.7 102.9,74.7 117.8,72.2 126.3,69.7 132.2,71.1 139.8,70.5 153.7,70.7 167.4,70.4 180.2,71.3 189.1,71.1 203.9,70.6 214.0,71.4 221.7,71.6 228.7,71.3 236.9,72.7 246.7,72.9 255.7,72.7 266.8,71.6 278.5,72.4 285.3,73.0 294.0,72.6 299.5,72.6 307.1,71.7 314.9,71.3 320.3,71.4 329.9,69.9 338.1,69.4 347.4,68.7 361.7,69.2 371.1,69.8 380.2,69.1 390.1,67.3 404.4,69.8 418.1,72.5 425.3,70.5 434.6,68.8 446.9,67.3 457.1,63.6 468.1,63.1 477.8,62.4 492.2,61.1 506.7,60.4 511.8,59.8 526.1,58.3 539.7,57.3 553.2,55.3 565.7,55.7 578.2,56.1 586.0,56.6 600.0,57.7 607.7,56.0 617.9,55.9 629.3,52.6 635.3,52.1 648.5,50.8 655.3,49.7 668.2,48.0 679.2,46.0 688.4,46.2 698.9,46.0 709.3,45.4 717.4,49.3 730.8,51.5 745.5,53.9 757.6,56.9 767.9,61.1 774.3,62.9 787.6,65.7 798.0,68.3 808.8,70.8 814.5,74.7 824.8,76.7 834.0,79.5 846.3,81.9 859.3,84.8 873.9,87.3 885.6,91.7 897.0,93.7 911.7,96.8 924.0,98.5 937.2,102.0 951.7,104.5 966.5,105.3 975.0,104.4 981.0,103.8 992.5,104.1 1006.8,104.4 1017.9,102.8 1029.9,103.6 1043.3,102.7 1050.3,103.0 1064.4,102.0 1073.2,101.7 1082.7,101.7 1091.8,101.3 1098.2,102.9 1104.8,101.3 1118.5,100.6 1130.1,99.6 1136.1,100.9 1142.8,102.6 1152.1,101.8 1162.1,102.4 1176.1,102.6 1187.8,104.5 1193.6,105.8 1198.7,106.5 1208.7,106.4 1218.1,107.1 1231.6,106.9 1236.7,107.8 1248.5,109.2 1257.8,109.9 1269.8,110.4 1280.8,113.1 1295.6,111.2 1302.2,109.5 1311.4,107.5 1326.4,107.7 1336.8,105.6 1350.9,105.6 1356.1,105.1 1364.3,105.2 1376.1,105.9 1385.0,105.6 1394.4,106.0 1403.3,104.9 1416.9,106.0 1431.1,106.1 1437.7,104.9 1447.7,102.4 1455.1,102.0 1469.8,100.9 1483.5,98.7 1491.6,97.8 1500.2,96.1 1515.0,92.8 1520.9,91.1 1526.6,89.2 1537.4,87.8 1551.1,86.1 1558.4,84.3 1570.2,81.6 1575.8,80.6 1583.3,77.7 1596.1,76.1 1608.3,78.1 1622.8,78.1 1628.4,78.3 1640.1,79.4 1651.3,80.8 1662.6,80.5 1670.8,81.7 1681.1,83.4 1693.4,84.2 1703.0,84.9 1716.4,85.4 1731.2,85.7 1744.6,84.4 1754.7,84.5 1769.3,56.9 1777.4,56.9 1782.4,54.9 1794.1,54.3 1800.8,57.0 1808.3,57.9 1820.2,59.4 1831.5,58.5 1839.5,60.8 1851.7,62.8 1857.4,63.2 1862.8,65.7 1870.0,66.2 1875.4,68.4 1883.0,69.4 1892.4,71.5 1900.8,72.0 1907.6,72.8 1921.0,75.6 1929.7,75.5 1935.0,77.6 1942.6,79.8 1952.2,80.4 1959.1,81.6 1968.3,83.6 1979.6,85.5 1985.1,86.7 1997.1,86.9 2010.9,89.2 2022.9,90.3 2029.3,90.6 2043.9,93.3 2051.0,94.6 2063.0,95.1 2074.9,96.3 2088.1,98.1 2101.7,100.4 2112.2,101.7 2121.7,100.4 2134.3,98.4 2144.2,98.1 2152.7,95.1 2165.8,94.3 2180.1,93.0 2190.3,91.9 2198.7,91.1 2207.1,89.1 2216.6,87.4 2228.0,84.9 2241.8,84.5 2252.2,81.7 2263.9,80.7 2272.7,78.0 2287.0,76.6 2295.4,75.3 2308.4,73.4 2315.3,71.8 2329.4,69.3 2338.2,73.4 2345.2,79.4 2350.4,82.9 2357.4,82.7 2363.3,80.0 2374.7,78.9 2386.6,75.9 2397.1,78.7 2400,160" fill="#f0ebe1" />
</svg>